<svg width="21" height="21" viewBox="0 0 21 21" fill="none" xmlns="http://www.w3.org/2000/svg">
<path d="M15.84 3.71C15.6027 3.71 15.3707 3.78038 15.1733 3.91224C14.976 4.04409 14.8222 4.23151 14.7313 4.45078C14.6405 4.67005 14.6168 4.91133 14.6631 5.14411C14.7094 5.37689 14.8236 5.59071 14.9915 5.75853C15.1593 5.92635 15.3731 6.04064 15.6059 6.08694C15.8387 6.13324 16.0799 6.10948 16.2992 6.01866C16.5185 5.92783 16.7059 5.77402 16.8378 5.57668C16.9696 5.37935 17.04 5.14734 17.04 4.91C17.04 4.59174 16.9136 4.28652 16.6885 4.06147C16.4635 3.83643 16.1583 3.71 15.84 3.71V3.71ZM20.44 6.13C20.4206 5.3003 20.2652 4.4794 19.98 3.7C19.7257 3.03313 19.33 2.42928 18.82 1.93C18.3248 1.41743 17.7196 1.02418 17.05 0.78C16.2727 0.486161 15.4508 0.32721 14.62 0.31C13.56 0.25 13.22 0.25 10.5 0.25C7.78 0.25 7.44 0.25 6.38 0.31C5.54915 0.32721 4.72734 0.486161 3.95 0.78C3.28168 1.02665 2.67693 1.41956 2.18 1.93C1.66743 2.42518 1.27418 3.03044 1.03 3.7C0.736161 4.47734 0.57721 5.29915 0.56 6.13C0.5 7.19 0.5 7.53 0.5 10.25C0.5 12.97 0.5 13.31 0.56 14.37C0.57721 15.2008 0.736161 16.0227 1.03 16.8C1.27418 17.4696 1.66743 18.0748 2.18 18.57C2.67693 19.0804 3.28168 19.4734 3.95 19.72C4.72734 20.0138 5.54915 20.1728 6.38 20.19C7.44 20.25 7.78 20.25 10.5 20.25C13.22 20.25 13.56 20.25 14.62 20.19C15.4508 20.1728 16.2727 20.0138 17.05 19.72C17.7196 19.4758 18.3248 19.0826 18.82 18.57C19.3322 18.0726 19.7283 17.4682 19.98 16.8C20.2652 16.0206 20.4206 15.1997 20.44 14.37C20.44 13.31 20.5 12.97 20.5 10.25C20.5 7.53 20.5 7.19 20.44 6.13V6.13ZM18.64 14.25C18.6327 14.8848 18.5178 15.5137 18.3 16.11C18.1403 16.5452 17.8839 16.9384 17.55 17.26C17.2256 17.5905 16.8332 17.8464 16.4 18.01C15.8037 18.2278 15.1748 18.3427 14.54 18.35C13.54 18.4 13.17 18.41 10.54 18.41C7.91 18.41 7.54 18.41 6.54 18.35C5.88089 18.3623 5.22459 18.2609 4.6 18.05C4.18578 17.8781 3.81136 17.6228 3.5 17.3C3.16809 16.9787 2.91484 16.5852 2.76 16.15C2.51586 15.5452 2.38044 14.9019 2.36 14.25C2.36 13.25 2.3 12.88 2.3 10.25C2.3 7.62 2.3 7.25 2.36 6.25C2.36448 5.60106 2.48295 4.95795 2.71 4.35C2.88605 3.92791 3.15626 3.55166 3.5 3.25C3.80381 2.90617 4.17929 2.6331 4.6 2.45C5.20955 2.23004 5.852 2.11508 6.5 2.11C7.5 2.11 7.87 2.05 10.5 2.05C13.13 2.05 13.5 2.05 14.5 2.11C15.1348 2.11728 15.7637 2.23225 16.36 2.45C16.8144 2.61865 17.2223 2.89285 17.55 3.25C17.8777 3.55718 18.1338 3.93273 18.3 4.35C18.5223 4.95893 18.6373 5.60178 18.64 6.25C18.69 7.25 18.7 7.62 18.7 10.25C18.7 12.88 18.69 13.25 18.64 14.25ZM10.5 5.12C9.48581 5.12198 8.49496 5.42453 7.65265 5.98942C6.81035 6.55431 6.15438 7.3562 5.76763 8.29375C5.38089 9.23131 5.28072 10.2625 5.47979 11.2569C5.67886 12.2514 6.16824 13.1645 6.88608 13.881C7.60392 14.5974 8.51801 15.085 9.51286 15.2821C10.5077 15.4793 11.5387 15.3771 12.4755 14.9885C13.4123 14.6 14.2129 13.9424 14.7761 13.099C15.3394 12.2556 15.64 11.2642 15.64 10.25C15.6413 9.5751 15.5092 8.90661 15.2512 8.28296C14.9933 7.65931 14.6146 7.09281 14.1369 6.61605C13.6592 6.13929 13.0919 5.76168 12.4678 5.50493C11.8436 5.24818 11.1749 5.11736 10.5 5.12V5.12ZM10.5 13.58C9.84139 13.58 9.19757 13.3847 8.64995 13.0188C8.10234 12.6529 7.67552 12.1328 7.42348 11.5243C7.17144 10.9159 7.1055 10.2463 7.23398 9.60035C7.36247 8.95439 7.67963 8.36104 8.14533 7.89533C8.61104 7.42963 9.20439 7.11247 9.85035 6.98398C10.4963 6.8555 11.1659 6.92144 11.7743 7.17348C12.3828 7.42552 12.9029 7.85234 13.2688 8.39995C13.6347 8.94757 13.83 9.59139 13.83 10.25C13.83 10.6873 13.7439 11.1203 13.5765 11.5243C13.4092 11.9284 13.1639 12.2954 12.8547 12.6047C12.5454 12.9139 12.1784 13.1592 11.7743 13.3265C11.3703 13.4939 10.9373 13.58 10.5 13.58V13.58Z" fill="#5671A6"/>
</svg>
