<svg width="19" height="20" viewBox="0 0 19 20" fill="none" xmlns="http://www.w3.org/2000/svg">
<path d="M9.73153 19.1903C8.22112 19.1903 6.87642 18.9844 5.69744 18.5724C4.51847 18.1652 3.52178 17.5663 2.70739 16.7756C1.89299 15.9896 1.27273 15.0284 0.846591 13.892C0.420455 12.7557 0.207386 11.4631 0.207386 10.0142C0.207386 8.58428 0.420455 7.28693 0.846591 6.12216C1.27746 4.95739 1.90483 3.95833 2.72869 3.125C3.55256 2.28693 4.55871 1.64299 5.74716 1.19318C6.94034 0.74337 8.29924 0.518465 9.82386 0.518465C11.2348 0.518465 12.4943 0.724431 13.6023 1.13636C14.715 1.5483 15.6572 2.13542 16.429 2.89773C17.2055 3.6553 17.795 4.55729 18.1974 5.60369C18.6046 6.64536 18.8059 7.7983 18.8011 9.0625C18.8059 9.93371 18.7301 10.7339 18.5739 11.4631C18.4176 12.1922 18.1714 12.8291 17.8352 13.3736C17.5038 13.9134 17.0682 14.3419 16.5284 14.6591C15.9886 14.9716 15.3352 15.1491 14.5682 15.1918C14.0189 15.2344 13.5739 15.1941 13.233 15.071C12.892 14.9479 12.6316 14.7656 12.4517 14.5241C12.2765 14.2779 12.1629 13.9915 12.1108 13.6648H12.0256C11.9119 13.9489 11.6894 14.2069 11.358 14.4389C11.0265 14.6662 10.6217 14.8437 10.1435 14.9716C9.66998 15.0947 9.16572 15.1397 8.63068 15.1065C8.07197 15.0734 7.54167 14.9432 7.03977 14.7159C6.54261 14.4886 6.09991 14.1596 5.71165 13.7287C5.32813 13.2978 5.02509 12.7652 4.80256 12.1307C4.58475 11.4962 4.47348 10.7623 4.46875 9.92898C4.47348 9.10511 4.58949 8.38778 4.81676 7.77699C5.04877 7.16619 5.35417 6.65246 5.73295 6.2358C6.11648 5.81913 6.54261 5.49242 7.01136 5.25568C7.48011 5.01894 7.95123 4.86742 8.42472 4.80114C8.95975 4.72064 9.46638 4.72064 9.9446 4.80114C10.4228 4.88163 10.8253 5.01184 11.152 5.19176C11.4834 5.37169 11.6894 5.56581 11.7699 5.77415H11.8693V4.97869H14.0923V11.9105C14.0971 12.2372 14.1705 12.4905 14.3125 12.6705C14.4545 12.8504 14.6463 12.9403 14.8878 12.9403C15.2145 12.9403 15.4867 12.7959 15.7045 12.5071C15.9271 12.2183 16.0928 11.7756 16.2017 11.179C16.3153 10.5824 16.3722 9.82244 16.3722 8.89915C16.3722 8.009 16.2538 7.22775 16.017 6.5554C15.785 5.87831 15.4583 5.30303 15.0369 4.82955C14.6203 4.35133 14.1349 3.96307 13.581 3.66477C13.027 3.36648 12.4257 3.14867 11.777 3.01136C11.133 2.87405 10.4702 2.8054 9.78835 2.8054C8.60938 2.8054 7.57955 2.98532 6.69886 3.34517C5.81818 3.70028 5.08428 4.19981 4.49716 4.84375C3.91004 5.48769 3.4697 6.2429 3.17614 7.10938C2.88731 7.97112 2.74053 8.91098 2.7358 9.92898C2.74053 11.0511 2.89678 12.0455 3.20455 12.9119C3.51705 13.7737 3.97633 14.4981 4.58239 15.0852C5.18845 15.6723 5.93655 16.1174 6.8267 16.4205C7.71686 16.7235 8.73958 16.875 9.89489 16.875C10.4394 16.875 10.9721 16.8348 11.4929 16.7543C12.0137 16.6785 12.4848 16.5838 12.9062 16.4702C13.3277 16.3613 13.6662 16.2547 13.9219 16.1506L14.625 18.2102C14.3267 18.3807 13.9219 18.5393 13.4105 18.6861C12.9039 18.8376 12.331 18.9583 11.6918 19.0483C11.0573 19.143 10.4039 19.1903 9.73153 19.1903ZM9.40483 12.7699C9.98248 12.7699 10.4418 12.6586 10.7827 12.4361C11.1283 12.2135 11.3745 11.8845 11.5213 11.4489C11.6728 11.0085 11.7438 10.4664 11.7344 9.82244C11.7296 9.25426 11.6562 8.77367 11.5142 8.38068C11.3769 7.98295 11.1378 7.68229 10.7969 7.47869C10.4607 7.27036 9.99195 7.16619 9.39062 7.16619C8.86506 7.16619 8.41761 7.27746 8.0483 7.5C7.68371 7.72254 7.40436 8.03504 7.21023 8.4375C7.02083 8.83523 6.92377 9.30398 6.91903 9.84375C6.92377 10.3456 7.00426 10.8215 7.16051 11.2713C7.31676 11.7164 7.57481 12.0786 7.93466 12.358C8.29451 12.6326 8.78456 12.7699 9.40483 12.7699Z" fill="#5671A6"/>
</svg>
