<svg width="21" height="17" viewBox="0 0 21 17" fill="none" xmlns="http://www.w3.org/2000/svg">
<path d="M20.5 2.2006C19.7483 2.5267 18.9534 2.74226 18.14 2.8406C18.9982 2.32792 19.6413 1.52138 19.95 0.5706C19.1436 1.05066 18.2608 1.3889 17.34 1.5706C16.7245 0.903172 15.905 0.458897 15.0098 0.307452C14.1147 0.156007 13.1945 0.305959 12.3938 0.73379C11.593 1.16162 10.9569 1.84313 10.5852 2.67144C10.2135 3.49974 10.1273 4.42799 10.34 5.3106C8.70943 5.22813 7.11444 4.80355 5.65865 4.06446C4.20287 3.32537 2.91885 2.28829 1.89 1.0206C1.52914 1.65077 1.33952 2.36442 1.34 3.0906C1.33872 3.76498 1.50422 4.42922 1.82176 5.02416C2.13929 5.61911 2.59902 6.12631 3.16 6.5006C2.50798 6.48286 1.86989 6.3079 1.3 5.9906V6.0406C1.30489 6.98549 1.63599 7.89969 2.23731 8.62857C2.83864 9.35744 3.67326 9.85624 4.6 10.0406C4.24326 10.1492 3.87287 10.2064 3.5 10.2106C3.24189 10.2076 2.98442 10.1842 2.73 10.1406C2.99391 10.9534 3.50462 11.6637 4.19107 12.1728C4.87753 12.6818 5.70558 12.9642 6.56 12.9806C5.1172 14.1159 3.33588 14.7355 1.5 14.7406C1.16574 14.7417 0.831736 14.7217 0.5 14.6806C2.37443 15.8909 4.55881 16.5333 6.79 16.5306C8.32969 16.5466 9.85714 16.2556 11.2831 15.6747C12.7091 15.0937 14.005 14.2345 15.0952 13.1471C16.1854 12.0597 17.048 10.766 17.6326 9.34151C18.2172 7.91702 18.512 6.39033 18.5 4.8506C18.5 4.6806 18.5 4.5006 18.5 4.3206C19.2847 3.73541 19.9615 3.01803 20.5 2.2006Z" fill="#5671A6"/>
</svg>
