<svg width="21" height="21" viewBox="0 0 21 21" fill="none" xmlns="http://www.w3.org/2000/svg">
<path d="M10.5 0.25C8.52219 0.25 6.58879 0.83649 4.9443 1.9353C3.29981 3.03412 2.01809 4.5959 1.26121 6.42317C0.504333 8.25043 0.306299 10.2611 0.692152 12.2009C1.078 14.1407 2.03041 15.9225 3.42894 17.3211C4.82746 18.7196 6.60929 19.672 8.5491 20.0579C10.4889 20.4437 12.4996 20.2457 14.3268 19.4888C16.1541 18.7319 17.7159 17.4502 18.8147 15.8057C19.9135 14.1612 20.5 12.2278 20.5 10.25C20.5 8.93678 20.2413 7.63642 19.7388 6.42317C19.2363 5.20991 18.4997 4.10752 17.5711 3.17893C16.6425 2.25035 15.5401 1.51375 14.3268 1.0112C13.1136 0.508658 11.8132 0.25 10.5 0.25ZM10.5 2.25C12.5547 2.24918 14.5298 3.04493 16.01 4.47C14.482 5.3662 12.8629 6.097 11.18 6.65C10.3425 5.20683 9.38228 3.83844 8.31 2.56C9.02197 2.355 9.75912 2.25065 10.5 2.25ZM6.39 3.4C7.43769 4.59851 8.37797 5.8868 9.2 7.25C7.23711 7.7374 5.22251 7.98587 3.2 7.99H2.84C3.40721 6.06964 4.67394 4.43181 6.39 3.4ZM4.5 15.56C3.19876 14.0988 2.48608 12.2066 2.5 10.25C2.5 10.15 2.5 10.05 2.5 9.96H3.18C5.54738 9.93884 7.9014 9.60255 10.18 8.96C10.5 9.57 10.8 10.2 11.09 10.85C9.5315 11.3994 8.08001 12.2148 6.8 13.26L6.5 13.5C5.78712 14.1402 5.11889 14.8285 4.5 15.56ZM10.5 18.25C8.90609 18.2535 7.3482 17.7761 6.03 16.88C6.51685 16.3216 7.03784 15.7939 7.59 15.3L7.91 15.03C9.09317 14.0349 10.449 13.2655 11.91 12.76C12.5113 14.386 12.9795 16.0582 13.31 17.76C12.4098 18.0887 11.4583 18.2546 10.5 18.25ZM15.13 16.76C14.8028 15.2466 14.3752 13.7566 13.85 12.3H14.19C14.2294 12.2903 14.2706 12.2903 14.31 12.3H14.42H14.52H15C16.0524 12.303 17.0968 12.4822 18.09 12.83C17.5443 14.4204 16.5079 15.7964 15.13 16.76ZM15 10.25C14.79 10.25 14.58 10.25 14.38 10.25C14.2505 10.2337 14.1195 10.2337 13.99 10.25C13.7182 10.2667 13.4477 10.3001 13.18 10.35H13.08C12.79 9.68 12.49 9.03 12.16 8.35C13.9506 7.73506 15.6704 6.93049 17.29 5.95C18.0934 7.23937 18.5131 8.73085 18.5 10.25C18.5 10.42 18.5 10.59 18.5 10.76C17.3667 10.4102 16.186 10.2382 15 10.25Z" fill="#5671A6"/>
</svg>
