<svg width="29" height="16" viewBox="0 0 29 16" fill="none" xmlns="http://www.w3.org/2000/svg">
<path d="M4.6661 5.94481H1.94396C1.58298 5.94481 1.23678 6.08821 0.981534 6.34346C0.726284 6.59871 0.582886 6.9449 0.582886 7.30588C0.582886 7.66686 0.726284 8.01305 0.981534 8.2683C1.23678 8.52355 1.58298 8.66695 1.94396 8.66695H4.6661C5.02708 8.66695 5.37327 8.52355 5.62852 8.2683C5.88377 8.01305 6.02717 7.66686 6.02717 7.30588C6.02717 6.9449 5.88377 6.59871 5.62852 6.34346C5.37327 6.08821 5.02708 5.94481 4.6661 5.94481ZM27.5049 2.07937V1.9977C27.1149 1.52104 26.6222 1.13876 26.0636 0.87949C25.5049 0.620215 24.8949 0.49066 24.2791 0.500524H13.4858C12.4857 0.491541 11.5171 0.849932 10.7637 1.50772V1.50772C10.06 2.12773 9.59739 2.97591 9.45707 3.9032L8.25933 10.7086C8.15633 11.2963 8.18339 11.8994 8.33859 12.4755C8.49379 13.0516 8.77336 13.5868 9.15764 14.0432C9.53991 14.4981 10.0169 14.8641 10.5552 15.1156C11.0935 15.3672 11.6803 15.4982 12.2745 15.4995H23.0814C24.0522 15.5142 24.9964 15.1825 25.7447 14.5639C26.493 13.9453 26.9964 13.0803 27.1646 12.1241L28.3624 5.31872C28.4567 4.74884 28.429 4.16543 28.2812 3.60703C28.1334 3.04863 27.8688 2.52794 27.5049 2.07937V2.07937ZM23.7755 3.22267L19.1479 6.97922C18.8743 7.19974 18.526 7.30588 18.1759 7.27544C17.8258 7.245 17.5011 7.08033 17.2696 6.8159L14.0983 3.22267H23.7755ZM24.4289 11.6205C24.3738 11.9401 24.2064 12.2294 23.9568 12.4366C23.7073 12.6437 23.392 12.7549 23.0678 12.7502H12.2745C12.0768 12.7485 11.8819 12.7038 11.7033 12.6192C11.5246 12.5346 11.3666 12.4121 11.2401 12.2602C11.1133 12.1091 11.0208 11.9322 10.9691 11.7419C10.9174 11.5515 10.9077 11.3522 10.9406 11.1577L12.0295 4.99206L15.228 8.61251C15.9242 9.40379 16.8994 9.89523 17.9496 9.98401C18.9998 10.0728 20.0437 9.75206 20.8629 9.08889L25.5449 5.26427L24.4289 11.6205ZM6.02717 0.500524H1.94396C1.58298 0.500524 1.23678 0.643922 0.981534 0.899173C0.726284 1.15442 0.582886 1.50062 0.582886 1.8616C0.582886 2.22257 0.726284 2.56877 0.981534 2.82402C1.23678 3.07927 1.58298 3.22267 1.94396 3.22267H6.02717C6.38815 3.22267 6.73434 3.07927 6.98959 2.82402C7.24485 2.56877 7.38824 2.22257 7.38824 1.8616C7.38824 1.50062 7.24485 1.15442 6.98959 0.899173C6.73434 0.643922 6.38815 0.500524 6.02717 0.500524Z" fill="white"/>
</svg>
