<svg width="21" height="21" viewBox="0 0 21 21" fill="none" xmlns="http://www.w3.org/2000/svg">
<path d="M5.74059 14.8584C5.54301 14.8584 5.34986 14.917 5.18557 15.0268C5.02129 15.1366 4.89324 15.2926 4.81763 15.4751C4.74202 15.6577 4.72223 15.8585 4.76078 16.0523C4.79933 16.2461 4.89447 16.4241 5.03419 16.5638C5.1739 16.7036 5.35191 16.7987 5.5457 16.8372C5.73949 16.8758 5.94035 16.856 6.1229 16.7804C6.30544 16.7048 6.46147 16.5767 6.57124 16.4125C6.68101 16.2482 6.7396 16.055 6.7396 15.8574C6.7396 15.5925 6.63435 15.3384 6.447 15.151C6.25965 14.9637 6.00555 14.8584 5.74059 14.8584ZM17.7887 10.8624L19.0174 9.6336C19.5787 9.07166 19.8939 8.30991 19.8939 7.5157C19.8939 6.72148 19.5787 5.95974 19.0174 5.3978L16.1902 2.58059C15.6283 2.01935 14.8666 1.7041 14.0723 1.7041C13.2781 1.7041 12.5164 2.01935 11.9544 2.58059L10.7356 3.80937C10.72 3.02495 10.3973 2.27795 9.83692 1.7288C9.27656 1.17964 8.5232 0.872127 7.73861 0.872284H3.74257C2.94771 0.872284 2.18541 1.18804 1.62335 1.75009C1.0613 2.31215 0.745544 3.07445 0.745544 3.86931V17.8555C0.745544 18.6503 1.0613 19.4126 1.62335 19.9747C2.18541 20.5367 2.94771 20.8525 3.74257 20.8525H17.7287C18.5236 20.8525 19.2859 20.5367 19.8479 19.9747C20.41 19.4126 20.7257 18.6503 20.7257 17.8555V13.8594C20.7259 13.0748 20.4184 12.3215 19.8692 11.7611C19.3201 11.2007 18.5731 10.8781 17.7887 10.8624ZM8.73762 17.8555C8.73762 18.1204 8.63237 18.3745 8.44502 18.5619C8.25767 18.7492 8.00357 18.8545 7.73861 18.8545H3.74257C3.47762 18.8545 3.22352 18.7492 3.03617 18.5619C2.84882 18.3745 2.74356 18.1204 2.74356 17.8555V3.86931C2.74356 3.60436 2.84882 3.35026 3.03617 3.16291C3.22352 2.97556 3.47762 2.8703 3.74257 2.8703H7.73861C8.00357 2.8703 8.25767 2.97556 8.44502 3.16291C8.63237 3.35026 8.73762 3.60436 8.73762 3.86931V17.8555ZM10.7356 6.62658L13.373 3.98919C13.5602 3.80313 13.8134 3.69869 14.0773 3.69869C14.3413 3.69869 14.5945 3.80313 14.7816 3.98919L17.6088 6.86634C17.7949 7.05352 17.8993 7.30672 17.8993 7.57065C17.8993 7.83457 17.7949 8.08777 17.6088 8.27495L14.7317 11.1521L10.7356 15.0982V6.62658ZM18.7277 17.8555C18.7277 18.1204 18.6225 18.3745 18.4351 18.5619C18.2478 18.7492 17.9937 18.8545 17.7287 18.8545H10.5558C10.6583 18.5584 10.7156 18.2485 10.7257 17.9354L15.8006 12.8604H17.7287C17.9937 12.8604 18.2478 12.9657 18.4351 13.153C18.6225 13.3404 18.7277 13.5945 18.7277 13.8594V17.8555Z" fill="#383838"/>
</svg>
