<svg width="16" height="16" viewBox="0 0 16 16" fill="none" xmlns="http://www.w3.org/2000/svg">
<path d="M13.678 2.43565H12.1795V1.68639C12.1795 1.48768 12.1005 1.2971 11.96 1.15659C11.8195 1.01607 11.6289 0.937134 11.4302 0.937134C11.2315 0.937134 11.0409 1.01607 10.9004 1.15659C10.7599 1.2971 10.681 1.48768 10.681 1.68639V2.43565H6.18541V1.68639C6.18541 1.48768 6.10648 1.2971 5.96596 1.15659C5.82545 1.01607 5.63487 0.937134 5.43616 0.937134C5.23744 0.937134 5.04687 1.01607 4.90635 1.15659C4.76584 1.2971 4.6869 1.48768 4.6869 1.68639V2.43565H3.18839C2.59224 2.43565 2.02051 2.67247 1.59897 3.09401C1.17743 3.51555 0.940613 4.08727 0.940613 4.68342V13.6745C0.940613 14.2707 1.17743 14.8424 1.59897 15.2639C2.02051 15.6855 2.59224 15.9223 3.18839 15.9223H13.678C14.2741 15.9223 14.8459 15.6855 15.2674 15.2639C15.6889 14.8424 15.9258 14.2707 15.9258 13.6745V4.68342C15.9258 4.08727 15.6889 3.51555 15.2674 3.09401C14.8459 2.67247 14.2741 2.43565 13.678 2.43565V2.43565ZM14.4272 13.6745C14.4272 13.8732 14.3483 14.0638 14.2078 14.2043C14.0673 14.3448 13.8767 14.4238 13.678 14.4238H3.18839C2.98967 14.4238 2.79909 14.3448 2.65858 14.2043C2.51807 14.0638 2.43913 13.8732 2.43913 13.6745V8.42971H14.4272V13.6745ZM14.4272 6.93119H2.43913V4.68342C2.43913 4.48471 2.51807 4.29413 2.65858 4.15362C2.79909 4.0131 2.98967 3.93416 3.18839 3.93416H4.6869V4.68342C4.6869 4.88214 4.76584 5.07271 4.90635 5.21323C5.04687 5.35374 5.23744 5.43268 5.43616 5.43268C5.63487 5.43268 5.82545 5.35374 5.96596 5.21323C6.10648 5.07271 6.18541 4.88214 6.18541 4.68342V3.93416H10.681V4.68342C10.681 4.88214 10.7599 5.07271 10.9004 5.21323C11.0409 5.35374 11.2315 5.43268 11.4302 5.43268C11.6289 5.43268 11.8195 5.35374 11.96 5.21323C12.1005 5.07271 12.1795 4.88214 12.1795 4.68342V3.93416H13.678C13.8767 3.93416 14.0673 4.0131 14.2078 4.15362C14.3483 4.29413 14.4272 4.48471 14.4272 4.68342V6.93119Z" fill="#616161"/>
</svg>
