<svg width="18" height="21" viewBox="0 0 18 21" fill="none" xmlns="http://www.w3.org/2000/svg">
<path d="M6.081 7.55156L6.07889 7.55321L6.07687 7.55509L6.081 7.55156ZM15.4391 7.38308C15.3736 7.32251 15.3011 7.26952 15.2228 7.22518C15.1121 7.16255 14.9891 7.12241 14.8616 7.10725C14.734 7.09209 14.6046 7.10222 14.4813 7.13703C14.358 7.17184 14.2434 7.23057 14.1447 7.30961C14.0459 7.38865 13.9651 7.4863 13.9072 7.59654C13.5834 8.20957 13.1367 8.75513 12.5929 9.20193C12.6761 8.75175 12.718 8.29544 12.7182 7.83822C12.72 6.44731 12.3381 5.08079 11.6114 3.87779C10.8847 2.6748 9.83922 1.6783 8.58135 0.989767C8.44279 0.914297 8.28654 0.873888 8.12726 0.872331C7.96799 0.870773 7.81091 0.908118 7.67078 0.980862C7.53064 1.05361 7.41203 1.15936 7.32609 1.28821C7.24015 1.41706 7.18969 1.56477 7.17944 1.71749C7.12683 2.57393 6.89379 3.41119 6.49446 4.17855C6.09512 4.94591 5.53779 5.62738 4.85624 6.18169L4.63957 6.35105C3.92688 6.81179 3.29604 7.37976 2.77127 8.03317C1.95554 9.02052 1.39047 10.1769 1.12085 11.4106C0.851235 12.6443 0.884498 13.9214 1.218 15.1406C1.5515 16.3598 2.17607 17.4875 3.04218 18.4344C3.90829 19.3814 4.99211 20.1214 6.2077 20.5958C6.35043 20.6518 6.50531 20.6733 6.6587 20.6582C6.81208 20.6431 6.95924 20.592 7.08721 20.5094C7.21518 20.4267 7.32001 20.3151 7.39247 20.1844C7.46492 20.0536 7.50277 19.9077 7.50268 19.7596C7.502 19.6638 7.48622 19.5686 7.45586 19.4773C7.24553 18.7177 7.18496 17.927 7.27728 17.146C8.16686 18.758 9.59481 20.0358 11.3315 20.774C11.5435 20.8651 11.7832 20.8773 12.0041 20.8084C13.3762 20.3829 14.6123 19.6273 15.595 18.6135C16.5776 17.5997 17.2741 16.3614 17.6183 15.0161C17.9625 13.6708 17.943 12.2633 17.5616 10.9274C17.1801 9.5914 16.4495 8.37133 15.4391 7.38308ZM11.7681 18.9728C10.9486 18.5737 10.2257 18.0135 9.64638 17.3284C9.06707 16.6433 8.64431 15.8487 8.4056 14.9963C8.33269 14.7093 8.2763 14.4187 8.23667 14.1257C8.20981 13.9392 8.12295 13.7653 7.98822 13.6285C7.85348 13.4917 7.67762 13.3988 7.48522 13.3627C7.42595 13.3515 7.36567 13.3459 7.30525 13.346C7.14002 13.3459 6.97769 13.3877 6.83464 13.4672C6.69159 13.5466 6.57287 13.6609 6.49045 13.7985C5.71041 15.0912 5.31812 16.5661 5.35707 18.0598C4.67101 17.5473 4.09764 16.9091 3.67019 16.1821C3.24274 15.4552 2.96972 14.6539 2.86695 13.8248C2.76417 12.9957 2.83369 12.1553 3.07147 11.3522C3.30925 10.5491 3.71057 9.79936 4.25216 9.14639C4.66338 8.63319 5.15946 8.1883 5.72062 7.82945C5.74492 7.81438 5.76823 7.79788 5.7904 7.78005C5.7904 7.78005 6.06935 7.55829 6.07889 7.55321C7.41827 6.46476 8.37088 5.00202 8.80402 3.36875C9.82835 4.27854 10.5114 5.48781 10.747 6.8088C10.9827 8.12978 10.7578 9.48857 10.1072 10.6742C10.0213 10.8324 9.98604 11.0115 10.0059 11.1889C10.0258 11.3663 10.0999 11.5341 10.219 11.6712C10.338 11.8082 10.4966 11.9082 10.6747 11.9587C10.8529 12.0092 11.0426 12.0079 11.22 11.955C12.66 11.5213 13.9272 10.6741 14.851 9.52748C15.4062 10.3154 15.7692 11.2135 15.9129 12.1549C16.0566 13.0963 15.9773 14.0568 15.681 14.9646C15.3846 15.8725 14.8789 16.7045 14.2014 17.3985C13.5239 18.0924 12.6921 18.6306 11.7681 18.9728Z" fill="#383838"/>
</svg>
