<svg width="19" height="21" viewBox="0 0 19 21" fill="none" xmlns="http://www.w3.org/2000/svg">
<path d="M17.6139 6.88306L11.5916 1.63455C11.0395 1.14367 10.3248 0.872284 9.58412 0.872284C8.84344 0.872284 8.12874 1.14367 7.57667 1.63455L1.55431 6.88306C1.2355 7.16651 0.981085 7.51423 0.808014 7.90307C0.634943 8.29191 0.547187 8.71294 0.550586 9.13812V17.859C0.550586 18.6529 0.867835 19.4143 1.43254 19.9757C1.99725 20.5371 2.76315 20.8525 3.56177 20.8525H15.6065C16.4051 20.8525 17.171 20.5371 17.7357 19.9757C18.3004 19.4143 18.6177 18.6529 18.6177 17.859V9.12814C18.6196 8.70463 18.5312 8.28553 18.3582 7.89852C18.1851 7.51151 17.9315 7.1654 17.6139 6.88306V6.88306ZM11.5916 18.8568H7.57667V13.8678C7.57667 13.6031 7.68242 13.3493 7.87066 13.1622C8.05889 12.9751 8.31419 12.87 8.5804 12.87H10.5878C10.8541 12.87 11.1094 12.9751 11.2976 13.1622C11.4858 13.3493 11.5916 13.6031 11.5916 13.8678V18.8568ZM16.6102 17.859C16.6102 18.1237 16.5045 18.3775 16.3162 18.5646C16.128 18.7517 15.8727 18.8568 15.6065 18.8568H13.599V13.8678C13.599 13.0739 13.2818 12.3125 12.7171 11.7511C12.1524 11.1897 11.3865 10.8743 10.5878 10.8743H8.5804C7.78178 10.8743 7.01588 11.1897 6.45117 11.7511C5.88647 12.3125 5.56922 13.0739 5.56922 13.8678V18.8568H3.56177C3.29556 18.8568 3.04026 18.7517 2.85202 18.5646C2.66379 18.3775 2.55804 18.1237 2.55804 17.859V9.12814C2.55822 8.98647 2.58875 8.84646 2.64759 8.71742C2.70643 8.58839 2.79224 8.47329 2.89931 8.37978L8.92166 3.14125C9.10483 2.98128 9.34031 2.89306 9.58412 2.89306C9.82794 2.89306 10.0634 2.98128 10.2466 3.14125L16.2689 8.37978C16.376 8.47329 16.4618 8.58839 16.5207 8.71742C16.5795 8.84646 16.61 8.98647 16.6102 9.12814V17.859Z" fill="#383838"/>
</svg>
