<svg width="21" height="20" viewBox="0 0 21 20" fill="none" xmlns="http://www.w3.org/2000/svg">
<path d="M17.698 4.61188H14.701V3.61287C14.701 2.81801 14.3852 2.05571 13.8232 1.49365C13.2611 0.931602 12.4988 0.615845 11.704 0.615845H9.70593C8.91107 0.615845 8.14876 0.931602 7.58671 1.49365C7.02466 2.05571 6.7089 2.81801 6.7089 3.61287V4.61188H3.71187C2.91701 4.61188 2.15471 4.92764 1.59265 5.48969C1.0306 6.05175 0.714844 6.81405 0.714844 7.60891V16.6C0.714844 17.3949 1.0306 18.1572 1.59265 18.7192C2.15471 19.2813 2.91701 19.597 3.71187 19.597H17.698C18.4929 19.597 19.2552 19.2813 19.8172 18.7192C20.3793 18.1572 20.695 17.3949 20.695 16.6V7.60891C20.695 6.81405 20.3793 6.05175 19.8172 5.48969C19.2552 4.92764 18.4929 4.61188 17.698 4.61188ZM8.70692 3.61287C8.70692 3.34792 8.81218 3.09382 8.99953 2.90647C9.18688 2.71912 9.44098 2.61386 9.70593 2.61386H11.704C11.9689 2.61386 12.223 2.71912 12.4104 2.90647C12.5977 3.09382 12.703 3.34792 12.703 3.61287V4.61188H8.70692V3.61287ZM18.697 16.6C18.697 16.865 18.5918 17.1191 18.4044 17.3064C18.2171 17.4938 17.963 17.599 17.698 17.599H3.71187C3.44692 17.599 3.19282 17.4938 3.00547 17.3064C2.81812 17.1191 2.71286 16.865 2.71286 16.6V11.555H5.70989V12.604C5.70989 12.8689 5.81515 13.123 6.0025 13.3104C6.18985 13.4977 6.44395 13.603 6.7089 13.603C6.97386 13.603 7.22796 13.4977 7.41531 13.3104C7.60266 13.123 7.70791 12.8689 7.70791 12.604V11.555H13.702V12.604C13.702 12.8689 13.8072 13.123 13.9946 13.3104C14.1819 13.4977 14.436 13.603 14.701 13.603C14.9659 13.603 15.22 13.4977 15.4074 13.3104C15.5947 13.123 15.7 12.8689 15.7 12.604V11.555H18.697V16.6ZM18.697 9.60693H2.71286V7.60891C2.71286 7.34396 2.81812 7.08986 3.00547 6.90251C3.19282 6.71516 3.44692 6.6099 3.71187 6.6099H17.698C17.963 6.6099 18.2171 6.71516 18.4044 6.90251C18.5918 7.08986 18.697 7.34396 18.697 7.60891V9.60693Z" fill="#383838"/>
</svg>
