<svg width="26" height="20" viewBox="0 0 26 20" fill="none" xmlns="http://www.w3.org/2000/svg">
<path d="M25.3768 7.30457L24.1845 6.64881L13.4539 0.687382H13.3228C13.2497 0.656476 13.1738 0.632525 13.0963 0.615845H12.8697H12.6551C12.5736 0.632536 12.4938 0.656477 12.4166 0.687382H12.2855L1.55493 6.64881C1.37144 6.7528 1.21881 6.9036 1.11263 7.08583C1.00645 7.26806 0.9505 7.47519 0.9505 7.6861C0.9505 7.89701 1.00645 8.10414 1.11263 8.28637C1.21881 8.4686 1.37144 8.6194 1.55493 8.72339L4.52372 10.3687V16.0202C4.52372 16.9688 4.90057 17.8786 5.57136 18.5494C6.24215 19.2202 7.15193 19.597 8.10058 19.597H17.6389C18.5875 19.597 19.4973 19.2202 20.1681 18.5494C20.8389 17.8786 21.2157 16.9688 21.2157 16.0202V10.3687L23.6003 9.03338V12.4433C23.6003 12.7595 23.7259 13.0628 23.9495 13.2864C24.1731 13.51 24.4764 13.6356 24.7926 13.6356C25.1088 13.6356 25.4121 13.51 25.6356 13.2864C25.8592 13.0628 25.9849 12.7595 25.9849 12.4433V8.34186C25.9845 8.13059 25.928 7.92321 25.8212 7.74095C25.7143 7.55869 25.561 7.40809 25.3768 7.30457V7.30457ZM18.8311 16.0202C18.8311 16.3364 18.7055 16.6397 18.4819 16.8632C18.2583 17.0868 17.9551 17.2125 17.6389 17.2125H8.10058C7.78436 17.2125 7.4811 17.0868 7.2575 16.8632C7.03391 16.6397 6.90829 16.3364 6.90829 16.0202V11.6922L12.2855 14.6729L12.4643 14.7444H12.5716C12.6706 14.7569 12.7708 14.7569 12.8697 14.7444C12.9687 14.7569 13.0688 14.7569 13.1678 14.7444H13.2751C13.3384 14.7311 13.3989 14.7069 13.4539 14.6729L18.8311 11.6922V16.0202ZM12.8697 12.2764L4.59526 7.67418L12.8697 3.07195L21.1442 7.67418L12.8697 12.2764Z" fill="#383838"/>
</svg>
