<svg width="21" height="23" viewBox="0 0 21 23" fill="none" xmlns="http://www.w3.org/2000/svg">
<path d="M9.02149 19.7559C9.02147 19.6092 8.98919 19.4644 8.92695 19.3316C8.8647 19.1988 8.77401 19.0813 8.66131 18.9875C8.5486 18.8936 8.41663 18.8257 8.27476 18.7886C8.13289 18.7514 7.98458 18.7459 7.84034 18.7725C6.53126 19.0127 4.87843 19.0488 4.43897 17.8145C4.05578 16.8585 3.42105 16.024 2.60206 15.3995C2.54363 15.3677 2.48794 15.3311 2.43556 15.2901C2.36389 15.101 2.23658 14.9381 2.07043 14.8229C1.90428 14.7076 1.7071 14.6455 1.50489 14.6446H1.50001C1.23561 14.6445 0.981942 14.7491 0.794525 14.9356C0.607109 15.1221 0.501212 15.3753 0.500014 15.6397C0.496104 16.4551 1.31101 16.9776 1.64161 17.1543C2.03146 17.546 2.34477 18.0071 2.56544 18.5137C2.9297 19.5372 3.98829 21.0899 7.03126 20.8897C7.03226 20.9249 7.03321 20.9581 7.0337 20.9883L7.03809 21.2559C7.03809 21.5211 7.14345 21.7755 7.33099 21.963C7.51852 22.1506 7.77288 22.2559 8.03809 22.2559C8.30331 22.2559 8.55766 22.1506 8.7452 21.963C8.93274 21.7755 9.03809 21.5211 9.03809 21.2559L9.03321 20.9376C9.02833 20.7481 9.02149 20.4736 9.02149 19.7559ZM19.6885 4.62987C19.7202 4.50487 19.7515 4.3662 19.7788 4.20995C19.9406 3.09554 19.7996 1.95814 19.3706 0.916948C19.3165 0.781211 19.2333 0.658955 19.127 0.558751C19.0206 0.458547 18.8936 0.382819 18.7549 0.336878C18.3989 0.216758 17.0845 -0.019572 14.5708 1.58688C12.4814 1.09517 10.3063 1.09517 8.21682 1.58688C5.71339 0.00395799 4.40577 0.218758 4.05323 0.332038C3.9111 0.376118 3.78063 0.451445 3.67138 0.552496C3.56214 0.653547 3.47689 0.777762 3.42188 0.916038C2.98419 1.97722 2.84472 3.13781 3.01856 4.27248C3.04298 4.40041 3.06934 4.51858 3.09669 4.62697C2.26826 5.73041 1.827 7.07633 1.84132 8.45607C1.83862 8.7639 1.85281 9.07166 1.8838 9.37794C2.2178 13.9805 5.2178 15.3623 7.30811 15.8369C7.26466 15.9619 7.22511 16.0957 7.18995 16.2373C7.12729 16.4946 7.16922 16.7663 7.30655 16.9927C7.44388 17.2191 7.6654 17.3818 7.92252 17.4452C8.17965 17.5085 8.45141 17.4673 8.6782 17.3306C8.90499 17.1939 9.06831 16.9728 9.13233 16.7158C9.19596 16.3826 9.35905 16.0766 9.60011 15.8379C9.74587 15.7103 9.8514 15.5431 9.90387 15.3566C9.95634 15.1701 9.95348 14.9724 9.89564 14.7875C9.83781 14.6026 9.72748 14.4385 9.5781 14.3152C9.42872 14.1919 9.24671 14.1146 9.05421 14.0928C5.60011 13.6983 4.10059 12.291 3.87501 9.19436C3.85003 8.94909 3.83878 8.70261 3.84132 8.45608C3.82528 7.47273 4.15015 6.51416 4.76075 5.74319C4.82211 5.66281 4.88746 5.58556 4.95655 5.51174C5.07899 5.37474 5.1613 5.20666 5.19447 5.02594C5.22763 4.84523 5.21036 4.65887 5.14455 4.48733C5.07709 4.30686 5.02514 4.12096 4.98928 3.93166C4.90782 3.39337 4.93454 2.84425 5.06788 2.31642C5.93702 2.56189 6.755 2.96146 7.48288 3.4961C7.60325 3.57627 7.73946 3.62963 7.88226 3.65254C8.02505 3.67546 8.17111 3.6674 8.31052 3.62892C10.3316 3.08042 12.4624 3.08076 14.4834 3.62992C14.6235 3.66836 14.7704 3.67596 14.9138 3.65219C15.0571 3.62842 15.1937 3.57384 15.3139 3.49223C16.0384 2.95537 16.853 2.55223 17.7192 2.3018C17.852 2.81695 17.8817 3.35325 17.8066 3.87992C17.7704 4.08746 17.7138 4.29092 17.6377 4.48735C17.5719 4.65889 17.5546 4.84525 17.5878 5.02596C17.6209 5.20668 17.7032 5.37476 17.8257 5.51176C17.9028 5.59867 17.98 5.69242 18.0493 5.78031C18.6556 6.53823 18.975 7.48578 18.9512 8.45607C18.953 8.71568 18.9404 8.97519 18.9136 9.23341C18.6934 12.2891 17.188 13.6973 13.7178 14.0928C13.5252 14.1147 13.3432 14.1921 13.1938 14.3156C13.0445 14.439 12.9342 14.6032 12.8764 14.7882C12.8186 14.9732 12.8159 15.171 12.8684 15.3575C12.9209 15.544 13.0265 15.7113 13.1724 15.8389C13.421 16.0839 13.5845 16.4022 13.6387 16.7471C13.7063 17.0148 13.7373 17.2904 13.731 17.5664V19.9004C13.7212 20.5479 13.7212 21.0332 13.7212 21.2559C13.7212 21.5211 13.8265 21.7754 14.0141 21.963C14.2016 22.1505 14.456 22.2559 14.7212 22.2559C14.9864 22.2559 15.2408 22.1505 15.4283 21.963C15.6158 21.7754 15.7212 21.5211 15.7212 21.2559C15.7212 21.0391 15.7212 20.5635 15.731 19.916V17.5664C15.739 17.1242 15.6869 16.683 15.5762 16.2549C15.5445 16.1143 15.5057 15.9755 15.46 15.8389C16.9812 15.5862 18.3634 14.8018 19.3606 13.6255C20.3577 12.4492 20.9051 10.9572 20.9053 9.41506C20.9382 9.09648 20.9535 8.77633 20.9512 8.45607C20.9734 7.07484 20.5284 5.72659 19.6885 4.62989L19.6885 4.62987Z" fill="#5671A6"/>
</svg>
