<svg width="23" height="15" viewBox="0 0 23 15" fill="none" xmlns="http://www.w3.org/2000/svg">
<path d="M3.23295 8.69318V15H0.207386V0.454545H3.14773V6.01562H3.27557C3.52178 5.37169 3.91951 4.86742 4.46875 4.50284C5.01799 4.13352 5.70691 3.94886 6.53551 3.94886C7.29309 3.94886 7.9536 4.11458 8.51705 4.44602C9.08523 4.77273 9.52557 5.24384 9.83807 5.85938C10.1553 6.47017 10.3116 7.2017 10.3068 8.05398V15H7.28125V8.59375C7.28598 7.9214 7.11553 7.3982 6.76989 7.02415C6.42898 6.65009 5.95076 6.46307 5.33523 6.46307C4.9233 6.46307 4.55871 6.55066 4.24148 6.72585C3.92898 6.90104 3.68277 7.15672 3.50284 7.4929C3.32765 7.82434 3.23769 8.22443 3.23295 8.69318ZM15.7134 8.69318V15H12.6879V0.454545H15.6282V6.01562H15.756C16.0022 5.37169 16.4 4.86742 16.9492 4.50284C17.4985 4.13352 18.1874 3.94886 19.016 3.94886C19.7736 3.94886 20.4341 4.11458 20.9975 4.44602C21.5657 4.77273 22.006 5.24384 22.3185 5.85938C22.6358 6.47017 22.792 7.2017 22.7873 8.05398V15H19.7617V8.59375C19.7665 7.9214 19.596 7.3982 19.2504 7.02415C18.9094 6.65009 18.4312 6.46307 17.8157 6.46307C17.4038 6.46307 17.0392 6.55066 16.7219 6.72585C16.4094 6.90104 16.1632 7.15672 15.9833 7.4929C15.8081 7.82434 15.7182 8.22443 15.7134 8.69318Z" fill="#5671A6"/>
</svg>
